<?xml version="1.0" standalone="no"?>
<!DOCTYPE svg PUBLIC "-//W3C//DTD SVG 20010904//EN"
 "http://www.w3.org/TR/2001/REC-SVG-20010904/DTD/svg10.dtd">
<svg version="1.0" xmlns="http://www.w3.org/2000/svg"
 width="512.000000pt" height="512.000000pt" viewBox="0 0 512.000000 512.000000"
 preserveAspectRatio="xMidYMid meet">

<g transform="translate(0.000000,512.000000) scale(0.100000,-0.100000)"
fill="#ffb31a" stroke="none">
<path d="M0 2560 l0 -2560 2560 0 2560 0 0 2560 0 2560 -1062 0 c-1027 0
-1061 -1 -1045 -18 10 -10 17 -28 17 -39 0 -23 -30 -53 -53 -53 -21 0 -57 35
-57 55 0 8 9 24 20 35 l20 20 -1480 0 -1480 0 0 -2560z m2411 2341 c21 -22 29
-39 29 -66 0 -51 -44 -95 -95 -95 -51 0 -95 44 -95 95 0 51 44 95 95 95 27 0
44 -8 66 -29z m1458 3 c-13 -15 -122 -124 -241 -244 l-217 -217 29 -21 c16
-12 33 -22 37 -22 5 0 127 119 273 265 146 146 269 265 275 265 5 0 -110 -120
-258 -268 -147 -147 -267 -271 -267 -275 0 -11 42 -46 55 -47 6 0 138 128 295
285 156 156 286 282 289 279 3 -3 -124 -134 -282 -292 l-288 -288 31 -29 31
-29 302 302 c166 166 306 302 311 302 5 0 -129 -138 -298 -306 l-307 -306 27
-30 28 -29 316 316 c173 173 320 315 325 315 5 0 -133 -143 -309 -319 -282
-282 -317 -321 -308 -338 33 -60 21 -69 370 280 180 180 332 327 337 327 5 0
-141 -150 -324 -334 l-335 -335 25 -35 24 -36 342 342 c188 188 344 340 347
337 3 -3 -149 -159 -338 -348 l-344 -344 21 -34 20 -35 351 351 c193 193 356
351 361 351 5 0 -151 -161 -349 -359 l-358 -358 17 -34 c10 -19 19 -36 22 -39
2 -2 168 160 368 360 201 201 365 360 365 355 0 -6 -164 -174 -364 -374 l-364
-364 16 -44 16 -43 378 377 c208 208 378 373 378 368 0 -5 -169 -179 -376
-386 l-376 -376 13 -42 13 -42 380 380 c210 210 386 381 391 381 5 0 -165
-175 -379 -389 l-389 -389 8 -38 c4 -21 9 -43 12 -48 3 -4 183 169 399 385
217 217 394 389 394 384 0 -6 -178 -188 -395 -405 -217 -217 -395 -400 -395
-407 0 -6 -12 -18 -27 -25 l-28 -14 -2 48 c0 27 -6 55 -13 63 -6 8 -9 18 -6
23 9 14 -16 92 -27 85 -7 -4 -8 0 -4 11 11 27 -13 98 -30 91 -10 -3 -13 1 -8
14 3 11 -1 36 -10 56 -13 32 -17 35 -30 25 -17 -14 -21 0 -4 17 8 8 6 19 -5
42 -18 34 -26 37 -44 19 -15 -15 -16 -3 0 21 9 15 7 24 -11 50 -22 31 -24 31
-42 15 -22 -20 -26 -8 -4 15 12 15 11 20 -12 49 l-25 33 -24 -22 c-13 -12 -24
-18 -24 -12 0 6 7 16 15 23 20 16 19 22 -6 54 l-21 27 -24 -22 c-13 -12 -26
-20 -29 -17 -3 2 4 13 15 23 27 24 25 30 -11 55 l-30 22 -23 -21 c-33 -31 -44
-25 -13 7 l27 28 -30 22 c-36 27 -42 27 -65 2 -10 -11 -23 -20 -28 -20 -6 0 2
13 17 29 l27 29 -37 22 c-31 20 -39 21 -48 9 -6 -8 -20 -21 -31 -29 -11 -8 -7
0 8 17 l28 30 -37 22 -37 22 -26 -25 c-37 -36 -51 -33 -17 3 l28 29 -30 16
c-42 22 -55 20 -82 -9 -13 -14 -28 -25 -34 -25 -5 0 2 13 17 28 15 15 27 31
27 34 0 21 -322 112 -446 125 -55 7 -69 12 -72 27 -2 10 0 22 5 27 23 23 329
-44 480 -105 l82 -33 158 159 c87 87 162 158 168 158 5 0 -62 -72 -150 -160
-87 -87 -157 -161 -155 -163 3 -3 20 -12 39 -22 l34 -17 211 211 c116 116 216
211 221 211 5 0 -86 -96 -204 -214 l-214 -214 34 -21 c19 -12 36 -21 39 -21 3
0 113 108 245 240 132 132 242 240 244 240 3 0 -6 -12 -20 -26z m-2579 -214
c20 -20 26 -63 14 -95 -9 -23 -60 -46 -88 -39 -56 14 -80 91 -41 134 25 27 88
27 115 0z m1381 -155 c331 -44 605 -166 826 -370 148 -136 270 -338 319 -530
23 -92 25 -113 21 -260 -4 -133 -9 -176 -31 -255 -35 -123 -127 -310 -213
-430 -91 -127 -294 -330 -477 -475 -167 -133 -242 -215 -295 -325 -35 -74 -36
-77 -39 -215 -1 -83 -7 -150 -14 -163 -32 -62 -173 -89 -509 -99 l-226 -6 -7
44 c-72 448 -85 623 -52 717 48 140 177 279 429 459 346 248 486 441 488 674
1 128 -29 207 -114 297 -58 61 -107 92 -193 124 -50 18 -81 22 -194 22 -116 0
-149 -3 -231 -26 -122 -34 -252 -85 -403 -160 -129 -63 -161 -69 -211 -38 -47
29 -87 81 -241 315 l-136 209 28 24 c16 13 72 54 124 91 417 300 906 436 1351
376z m1719 -760 c-244 -244 -446 -442 -449 -439 -7 6 871 884 884 884 5 0
-190 -200 -435 -445z m5 -125 c-252 -252 -461 -457 -464 -454 -7 6 901 914
914 914 5 0 -197 -207 -450 -460z m0 -140 c-253 -253 -464 -460 -470 -460 -5
0 199 209 455 465 255 255 466 462 469 459 3 -3 -202 -212 -454 -464z m-3473
320 c77 -22 128 -87 128 -165 0 -55 -18 -93 -60 -129 -88 -74 -214 -46 -261
58 -23 52 -23 90 0 141 22 49 48 73 98 91 47 16 49 16 95 4z m3918 -7 c0 -11
-743 -753 -755 -753 -5 0 161 171 370 380 209 209 381 380 382 380 2 0 3 -3 3
-7z m-2305 -197 c81 -21 155 -65 212 -123 52 -52 72 -91 58 -112 -12 -21 -32
-11 -58 28 -58 88 -157 145 -285 163 -148 22 -383 -33 -609 -142 -116 -57
-136 -61 -131 -27 6 43 300 171 488 211 85 18 261 19 325 2z m1991 -254 c-142
-141 -255 -250 -250 -242 12 23 498 509 504 504 2 -3 -112 -121 -254 -262z
m-3152 6 c15 -24 -3 -52 -37 -56 -33 -4 -53 28 -37 59 14 25 58 23 74 -3z
m618 -569 c30 -16 50 -71 37 -106 -10 -31 -55 -63 -87 -63 -11 0 -34 12 -51
26 -82 69 6 194 101 143z m2170 -192 c26 -33 23 -93 -6 -122 -34 -34 -68 -40
-109 -20 -36 17 -57 50 -57 90 0 30 44 83 73 87 35 6 80 -10 99 -35z m-2882
-232 c27 -32 -23 -82 -55 -55 -15 13 -20 51 -8 63 12 12 50 7 63 -8z m2293
-565 c39 -44 37 -92 -7 -136 -43 -43 -90 -46 -135 -8 -38 32 -49 80 -27 123
35 67 118 77 169 21z m584 -395 c60 -40 80 -123 43 -183 -53 -87 -167 -95
-229 -16 -57 72 -16 193 74 217 31 8 84 0 112 -18z m-1607 -295 c143 -27 272
-126 337 -257 34 -69 37 -82 41 -184 4 -85 1 -125 -13 -175 -45 -166 -184
-290 -370 -329 -88 -19 -142 -19 -230 0 -191 40 -328 169 -370 346 -28 121
-14 251 38 359 34 70 135 166 212 201 36 16 82 33 103 38 52 13 189 13 252 1z
m901 -223 c44 -34 49 -83 13 -126 -53 -63 -144 -26 -144 58 0 31 6 44 26 60
29 23 80 27 105 8z m-2331 -162 c32 -29 43 -70 30 -109 -14 -43 -48 -66 -98
-66 -98 0 -132 129 -48 181 35 23 88 20 116 -6z"/>
<path d="M2295 4885 c-39 -39 -32 -86 17 -111 24 -13 35 -13 58 -4 78 32 48
139 -38 140 -7 0 -24 -11 -37 -25z"/>
<path d="M830 3802 c-59 -26 -90 -73 -90 -136 0 -88 59 -146 148 -146 72 0
142 71 142 145 0 75 -70 146 -144 144 -23 0 -48 -3 -56 -7z"/>
<path d="M4039 2612 c-48 -40 -17 -122 47 -122 35 0 74 37 74 70 0 10 -9 29
-21 44 -25 31 -66 35 -100 8z"/>
<path d="M1237 2373 c-12 -11 -8 -23 8 -23 8 0 15 7 15 15 0 16 -12 20 -23 8z"/>
<path d="M4004 1386 c-38 -38 -45 -85 -20 -134 28 -54 109 -72 162 -37 67 44
62 155 -8 191 -49 25 -96 18 -134 -20z"/>
<path d="M3360 880 c-36 -36 -21 -89 30 -105 43 -14 91 45 70 85 -22 42 -69
51 -100 20z"/>
<path d="M1002 717 c-29 -31 -28 -72 3 -102 30 -30 64 -32 99 -4 33 26 36 79
6 109 -28 28 -81 26 -108 -3z"/>
<path d="M2963 5093 c-18 -6 -16 -50 2 -57 8 -3 21 2 29 10 24 24 1 58 -31 47z"/>
</g>
</svg>
